<svg xmlns="http://www.w3.org/2000/svg" xmlns:xlink="http://www.w3.org/1999/xlink" width="218" zoomAndPan="magnify" viewBox="0 0 163.5 69.749997" height="93" preserveAspectRatio="xMidYMid meet" version="1.0"><defs><clipPath id="ae15a53212"><path d="M 35 44 L 39 44 L 39 48.796875 L 35 48.796875 Z M 35 44 " clip-rule="nonzero"/></clipPath><clipPath id="ba9e5b5f94"><path d="M 38 44 L 43 44 L 43 48.796875 L 38 48.796875 Z M 38 44 " clip-rule="nonzero"/></clipPath><clipPath id="8ad831f16e"><path d="M 43 44 L 47 44 L 47 48.796875 L 43 48.796875 Z M 43 44 " clip-rule="nonzero"/></clipPath><clipPath id="4c8d68871f"><path d="M 47 44 L 51 44 L 51 48.796875 L 47 48.796875 Z M 47 44 " clip-rule="nonzero"/></clipPath><clipPath id="ed6d5b421c"><path d="M 51 44 L 54 44 L 54 48.796875 L 51 48.796875 Z M 51 44 " clip-rule="nonzero"/></clipPath><clipPath id="ef318c16f7"><path d="M 54 44 L 57 44 L 57 48.796875 L 54 48.796875 Z M 54 44 " clip-rule="nonzero"/></clipPath><clipPath id="bf97041ebb"><path d="M 59 44 L 63 44 L 63 48.796875 L 59 48.796875 Z M 59 44 " clip-rule="nonzero"/></clipPath><clipPath id="a509fd6437"><path d="M 63 44 L 67 44 L 67 48.796875 L 63 48.796875 Z M 63 44 " clip-rule="nonzero"/></clipPath><clipPath id="a8f29e43b8"><path d="M 66 44 L 72 44 L 72 48.796875 L 66 48.796875 Z M 66 44 " clip-rule="nonzero"/></clipPath><clipPath id="10de297a51"><path d="M 72 44 L 75 44 L 75 48.796875 L 72 48.796875 Z M 72 44 " clip-rule="nonzero"/></clipPath><clipPath id="f881897ff9"><path d="M 75 44 L 78 44 L 78 48.796875 L 75 48.796875 Z M 75 44 " clip-rule="nonzero"/></clipPath><clipPath id="ae0a412cc3"><path d="M 78 44 L 82 44 L 82 48.796875 L 78 48.796875 Z M 78 44 " clip-rule="nonzero"/></clipPath><clipPath id="9d25781c42"><path d="M 81 44 L 85 44 L 85 48.796875 L 81 48.796875 Z M 81 44 " clip-rule="nonzero"/></clipPath><clipPath id="6977a356be"><path d="M 85 44 L 87 44 L 87 48.796875 L 85 48.796875 Z M 85 44 " clip-rule="nonzero"/></clipPath><clipPath id="363bca2145"><path d="M 87 44 L 92 44 L 92 48.796875 L 87 48.796875 Z M 87 44 " clip-rule="nonzero"/></clipPath><clipPath id="4c6f5624e8"><path d="M 92 44 L 97 44 L 97 48.796875 L 92 48.796875 Z M 92 44 " clip-rule="nonzero"/></clipPath><clipPath id="032d839374"><path d="M 97 44 L 102 44 L 102 48.796875 L 97 48.796875 Z M 97 44 " clip-rule="nonzero"/></clipPath><clipPath id="fc4889b7ce"><path d="M 101 44 L 105 44 L 105 48.796875 L 101 48.796875 Z M 101 44 " clip-rule="nonzero"/></clipPath><clipPath id="9d5ecb0f42"><path d="M 117 44 L 123 44 L 123 48.796875 L 117 48.796875 Z M 117 44 " clip-rule="nonzero"/></clipPath><clipPath id="20d47ef1f8"><path d="M 122 44 L 126 44 L 126 48.796875 L 122 48.796875 Z M 122 44 " clip-rule="nonzero"/></clipPath><clipPath id="41880fdb31"><path d="M 126 44 L 131 44 L 131 48.796875 L 126 48.796875 Z M 126 44 " clip-rule="nonzero"/></clipPath><clipPath id="b9a01be49d"><path d="M 130 44 L 135 44 L 135 48.796875 L 130 48.796875 Z M 130 44 " clip-rule="nonzero"/></clipPath><clipPath id="3c1e1fd3e3"><path d="M 134 44 L 139 44 L 139 48.796875 L 134 48.796875 Z M 134 44 " clip-rule="nonzero"/></clipPath><clipPath id="c88c6eb41c"><path d="M 139 44 L 141 44 L 141 48.796875 L 139 48.796875 Z M 139 44 " clip-rule="nonzero"/></clipPath><clipPath id="bddfd64264"><path d="M 141 44 L 145 44 L 145 48.796875 L 141 48.796875 Z M 141 44 " clip-rule="nonzero"/></clipPath><clipPath id="d8405eba90"><path d="M 144 44 L 149 44 L 149 48.796875 L 144 48.796875 Z M 144 44 " clip-rule="nonzero"/></clipPath><clipPath id="14b68516a9"><path d="M 148 44 L 152 44 L 152 48.796875 L 148 48.796875 Z M 148 44 " clip-rule="nonzero"/></clipPath><clipPath id="eaaddab1a7"><path d="M 151 44 L 153 44 L 153 48.796875 L 151 48.796875 Z M 151 44 " clip-rule="nonzero"/></clipPath><clipPath id="98dfc2cc0c"><path d="M 153 44 L 158 44 L 158 48.796875 L 153 48.796875 Z M 153 44 " clip-rule="nonzero"/></clipPath><clipPath id="c4e04b8192"><path d="M 158 44 L 162.957031 44 L 162.957031 48.796875 L 158 48.796875 Z M 158 44 " clip-rule="nonzero"/></clipPath><clipPath id="f8a88d7b61"><path d="M 35 20.398438 L 148 20.398438 L 148 48.796875 L 35 48.796875 Z M 35 20.398438 " clip-rule="nonzero"/></clipPath><clipPath id="ffc91b1439"><path d="M 13 20.398438 L 30 20.398438 L 30 48.796875 L 13 48.796875 Z M 13 20.398438 " clip-rule="nonzero"/></clipPath><clipPath id="fa04383f31"><path d="M 0.0429688 20.398438 L 17 20.398438 L 17 48.796875 L 0.0429688 48.796875 Z M 0.0429688 20.398438 " clip-rule="nonzero"/></clipPath></defs><g clip-path="url(#ae15a53212)"><path fill="#000000" d="M 38.367188 48.59375 L 37.101562 48.613281 L 36.109375 47.238281 L 36.132812 48.628906 L 35.113281 48.648438 L 35.050781 45.023438 L 36.636719 44.992188 C 36.855469 44.988281 37.046875 45.015625 37.207031 45.070312 C 37.371094 45.128906 37.507812 45.207031 37.613281 45.308594 C 37.722656 45.410156 37.800781 45.527344 37.859375 45.660156 C 37.914062 45.792969 37.945312 45.9375 37.949219 46.089844 C 37.953125 46.367188 37.886719 46.589844 37.746094 46.765625 C 37.605469 46.9375 37.394531 47.058594 37.117188 47.125 L 38.371094 48.589844 Z M 36.09375 46.628906 L 36.289062 46.628906 C 36.488281 46.621094 36.644531 46.582031 36.746094 46.5 C 36.855469 46.421875 36.90625 46.308594 36.902344 46.164062 C 36.898438 46.023438 36.84375 45.914062 36.734375 45.835938 C 36.625 45.761719 36.472656 45.726562 36.269531 45.730469 L 36.078125 45.730469 Z M 36.09375 46.628906 " fill-opacity="1" fill-rule="nonzero"/></g><g clip-path="url(#ba9e5b5f94)"><path fill="#000000" d="M 41.398438 47.984375 L 39.945312 48.011719 L 39.722656 48.644531 L 38.636719 48.664062 L 40.066406 45.011719 L 41.175781 44.992188 L 42.730469 48.59375 L 41.644531 48.613281 Z M 41.117188 47.273438 L 40.640625 46.078125 L 40.203125 47.289062 Z M 41.117188 47.273438 " fill-opacity="1" fill-rule="nonzero"/></g><g clip-path="url(#8ad831f16e)"><path fill="#000000" d="M 46.167969 46.1875 C 45.925781 45.925781 45.636719 45.796875 45.289062 45.800781 C 45.136719 45.804688 44.996094 45.832031 44.863281 45.886719 C 44.738281 45.941406 44.625 46.011719 44.535156 46.097656 C 44.441406 46.1875 44.367188 46.296875 44.320312 46.417969 C 44.265625 46.539062 44.242188 46.671875 44.246094 46.816406 C 44.246094 46.957031 44.277344 47.089844 44.335938 47.210938 C 44.390625 47.332031 44.46875 47.4375 44.566406 47.523438 C 44.660156 47.613281 44.773438 47.679688 44.902344 47.730469 C 45.03125 47.78125 45.171875 47.804688 45.320312 47.800781 C 45.648438 47.796875 45.9375 47.664062 46.195312 47.402344 L 46.210938 48.515625 L 46.109375 48.554688 C 45.953125 48.609375 45.808594 48.648438 45.675781 48.671875 C 45.539062 48.699219 45.40625 48.714844 45.273438 48.714844 C 45.003906 48.71875 44.746094 48.675781 44.496094 48.585938 C 44.25 48.5 44.027344 48.367188 43.835938 48.199219 C 43.644531 48.03125 43.488281 47.832031 43.371094 47.597656 C 43.253906 47.367188 43.191406 47.105469 43.1875 46.828125 C 43.179688 46.546875 43.234375 46.292969 43.339844 46.058594 C 43.449219 45.824219 43.597656 45.621094 43.78125 45.449219 C 43.964844 45.277344 44.183594 45.140625 44.429688 45.042969 C 44.679688 44.945312 44.941406 44.894531 45.210938 44.886719 C 45.367188 44.886719 45.519531 44.898438 45.671875 44.925781 C 45.824219 44.949219 45.980469 44.996094 46.148438 45.058594 L 46.171875 46.183594 Z M 46.167969 46.1875 " fill-opacity="1" fill-rule="nonzero"/></g><g clip-path="url(#4c8d68871f)"><path fill="#000000" d="M 48.054688 46.503906 L 49.269531 44.988281 L 50.527344 44.96875 L 49.003906 46.710938 L 50.734375 48.589844 L 49.417969 48.613281 L 48.0625 47.066406 L 48.089844 48.636719 L 47.070312 48.65625 L 47.007812 45.03125 L 48.027344 45.011719 L 48.054688 46.507812 Z M 48.054688 46.503906 " fill-opacity="1" fill-rule="nonzero"/></g><g clip-path="url(#ed6d5b421c)"><path fill="#000000" d="M 53.578125 45.777344 L 52.367188 45.800781 L 52.375 46.40625 L 53.519531 46.382812 L 53.53125 47.183594 L 52.390625 47.203125 L 52.398438 47.828125 L 53.609375 47.808594 L 53.625 48.605469 L 51.398438 48.644531 L 51.335938 45.019531 L 53.5625 44.980469 L 53.574219 45.777344 Z M 53.578125 45.777344 " fill-opacity="1" fill-rule="nonzero"/></g><g clip-path="url(#ef318c16f7)"><path fill="#000000" d="M 55.996094 45.792969 L 56.046875 48.621094 L 55.027344 48.636719 L 54.976562 45.808594 L 54.140625 45.824219 L 54.128906 45.027344 L 56.820312 44.980469 L 56.832031 45.777344 L 56 45.792969 Z M 55.996094 45.792969 " fill-opacity="1" fill-rule="nonzero"/></g><g clip-path="url(#bf97041ebb)"><path fill="#000000" d="M 60.550781 48.628906 L 59.53125 48.648438 L 59.46875 45.023438 L 61.089844 44.992188 C 61.527344 44.984375 61.867188 45.085938 62.105469 45.292969 C 62.34375 45.503906 62.464844 45.796875 62.472656 46.179688 C 62.480469 46.566406 62.367188 46.867188 62.136719 47.082031 C 61.90625 47.300781 61.574219 47.410156 61.132812 47.417969 L 60.527344 47.425781 Z M 60.515625 46.667969 L 60.851562 46.660156 C 61.226562 46.652344 61.410156 46.503906 61.40625 46.199219 C 61.402344 45.898438 61.210938 45.75 60.835938 45.757812 L 60.5 45.765625 Z M 60.515625 46.667969 " fill-opacity="1" fill-rule="nonzero"/></g><g clip-path="url(#a509fd6437)"><path fill="#000000" d="M 66.519531 48.59375 L 65.253906 48.613281 L 64.257812 47.238281 L 64.28125 48.628906 L 63.261719 48.648438 L 63.199219 45.023438 L 64.785156 44.992188 C 65.003906 44.988281 65.195312 45.015625 65.355469 45.070312 C 65.519531 45.128906 65.65625 45.207031 65.765625 45.308594 C 65.871094 45.410156 65.953125 45.527344 66.007812 45.660156 C 66.0625 45.792969 66.09375 45.9375 66.097656 46.089844 C 66.101562 46.367188 66.035156 46.589844 65.894531 46.765625 C 65.753906 46.9375 65.542969 47.058594 65.265625 47.125 L 66.519531 48.589844 Z M 64.246094 46.628906 L 64.4375 46.628906 C 64.640625 46.621094 64.792969 46.582031 64.898438 46.5 C 65.003906 46.421875 65.054688 46.308594 65.050781 46.164062 C 65.046875 46.023438 64.992188 45.914062 64.882812 45.835938 C 64.773438 45.761719 64.621094 45.726562 64.417969 45.730469 L 64.226562 45.730469 L 64.242188 46.628906 Z M 64.246094 46.628906 " fill-opacity="1" fill-rule="nonzero"/></g><g clip-path="url(#a8f29e43b8)"><path fill="#000000" d="M 66.945312 46.851562 C 66.941406 46.582031 66.988281 46.328125 67.09375 46.097656 C 67.199219 45.863281 67.34375 45.660156 67.53125 45.480469 C 67.71875 45.304688 67.941406 45.164062 68.207031 45.0625 C 68.46875 44.960938 68.757812 44.90625 69.078125 44.902344 C 69.394531 44.894531 69.683594 44.941406 69.953125 45.03125 C 70.222656 45.125 70.453125 45.257812 70.648438 45.425781 C 70.84375 45.597656 70.996094 45.796875 71.105469 46.027344 C 71.21875 46.257812 71.277344 46.507812 71.28125 46.777344 C 71.285156 47.042969 71.238281 47.296875 71.132812 47.53125 C 71.027344 47.765625 70.882812 47.96875 70.695312 48.144531 C 70.507812 48.324219 70.277344 48.460938 70.011719 48.5625 C 69.746094 48.664062 69.457031 48.722656 69.144531 48.726562 C 68.824219 48.730469 68.53125 48.6875 68.265625 48.59375 C 68 48.5 67.769531 48.371094 67.578125 48.203125 C 67.382812 48.03125 67.230469 47.832031 67.121094 47.601562 C 67.007812 47.371094 66.949219 47.121094 66.945312 46.851562 Z M 68.011719 46.832031 C 68.011719 46.976562 68.042969 47.109375 68.105469 47.230469 C 68.164062 47.351562 68.246094 47.453125 68.351562 47.542969 C 68.453125 47.632812 68.570312 47.699219 68.703125 47.746094 C 68.839844 47.792969 68.980469 47.816406 69.128906 47.816406 C 69.277344 47.8125 69.421875 47.785156 69.554688 47.734375 C 69.6875 47.683594 69.800781 47.609375 69.902344 47.515625 C 70.003906 47.425781 70.082031 47.320312 70.136719 47.195312 C 70.191406 47.074219 70.222656 46.941406 70.21875 46.796875 C 70.214844 46.652344 70.183594 46.519531 70.125 46.398438 C 70.066406 46.28125 69.980469 46.175781 69.878906 46.085938 C 69.773438 45.996094 69.65625 45.929688 69.519531 45.882812 C 69.382812 45.835938 69.242188 45.8125 69.09375 45.816406 C 68.945312 45.816406 68.804688 45.84375 68.671875 45.894531 C 68.539062 45.949219 68.421875 46.019531 68.324219 46.113281 C 68.222656 46.203125 68.144531 46.3125 68.089844 46.433594 C 68.035156 46.554688 68.007812 46.691406 68.011719 46.835938 Z M 68.011719 46.832031 " fill-opacity="1" fill-rule="nonzero"/></g><g clip-path="url(#10de297a51)"><path fill="#000000" d="M 74.371094 45.777344 L 73.144531 45.800781 L 73.15625 46.40625 L 74.273438 46.386719 L 74.285156 47.1875 L 73.167969 47.203125 L 73.195312 48.628906 L 72.175781 48.644531 L 72.113281 45.019531 L 74.355469 44.980469 L 74.367188 45.777344 Z M 74.371094 45.777344 " fill-opacity="1" fill-rule="nonzero"/></g><g clip-path="url(#f881897ff9)"><path fill="#000000" d="M 77.429688 45.777344 L 76.214844 45.800781 L 76.226562 46.40625 L 77.371094 46.382812 L 77.382812 47.183594 L 76.238281 47.203125 L 76.25 47.828125 L 77.460938 47.808594 L 77.476562 48.605469 L 75.246094 48.644531 L 75.183594 45.019531 L 77.414062 44.980469 L 77.425781 45.777344 Z M 77.429688 45.777344 " fill-opacity="1" fill-rule="nonzero"/></g><g clip-path="url(#ae0a412cc3)"><path fill="#000000" d="M 80.519531 45.910156 C 80.40625 45.832031 80.292969 45.769531 80.179688 45.730469 C 80.070312 45.691406 79.960938 45.671875 79.859375 45.675781 C 79.726562 45.675781 79.621094 45.710938 79.535156 45.769531 C 79.457031 45.828125 79.414062 45.902344 79.417969 45.996094 C 79.417969 46.058594 79.441406 46.113281 79.480469 46.152344 C 79.523438 46.191406 79.578125 46.226562 79.644531 46.257812 C 79.714844 46.285156 79.789062 46.3125 79.875 46.332031 C 79.960938 46.351562 80.046875 46.375 80.128906 46.398438 C 80.464844 46.496094 80.707031 46.628906 80.863281 46.800781 C 81.023438 46.96875 81.101562 47.191406 81.109375 47.464844 C 81.109375 47.648438 81.078125 47.820312 81.015625 47.972656 C 80.953125 48.121094 80.855469 48.253906 80.726562 48.363281 C 80.597656 48.472656 80.441406 48.558594 80.253906 48.621094 C 80.066406 48.683594 79.851562 48.71875 79.613281 48.71875 C 79.117188 48.726562 78.660156 48.601562 78.230469 48.335938 L 78.652344 47.570312 C 78.808594 47.691406 78.960938 47.78125 79.109375 47.839844 C 79.257812 47.898438 79.410156 47.925781 79.554688 47.925781 C 79.722656 47.921875 79.84375 47.886719 79.921875 47.8125 C 80.003906 47.738281 80.042969 47.65625 80.039062 47.570312 C 80.039062 47.515625 80.027344 47.46875 80.007812 47.429688 C 79.984375 47.390625 79.949219 47.351562 79.902344 47.320312 C 79.851562 47.285156 79.789062 47.253906 79.710938 47.226562 C 79.632812 47.199219 79.539062 47.167969 79.425781 47.136719 C 79.292969 47.097656 79.164062 47.058594 79.039062 47.015625 C 78.910156 46.972656 78.796875 46.910156 78.695312 46.835938 C 78.597656 46.761719 78.515625 46.664062 78.453125 46.546875 C 78.390625 46.433594 78.355469 46.285156 78.355469 46.105469 C 78.351562 45.925781 78.378906 45.761719 78.441406 45.613281 C 78.503906 45.464844 78.589844 45.339844 78.707031 45.234375 C 78.820312 45.128906 78.960938 45.042969 79.128906 44.984375 C 79.296875 44.925781 79.484375 44.890625 79.691406 44.886719 C 79.882812 44.886719 80.085938 44.90625 80.296875 44.953125 C 80.511719 45 80.714844 45.066406 80.910156 45.160156 L 80.519531 45.90625 Z M 80.519531 45.910156 " fill-opacity="1" fill-rule="nonzero"/></g><g clip-path="url(#9d25781c42)"><path fill="#000000" d="M 84.105469 45.910156 C 83.992188 45.832031 83.878906 45.769531 83.765625 45.730469 C 83.65625 45.691406 83.546875 45.671875 83.445312 45.675781 C 83.3125 45.675781 83.207031 45.710938 83.121094 45.769531 C 83.042969 45.828125 83 45.902344 83.003906 45.996094 C 83.003906 46.058594 83.027344 46.113281 83.066406 46.152344 C 83.109375 46.191406 83.164062 46.226562 83.230469 46.257812 C 83.300781 46.285156 83.375 46.3125 83.460938 46.332031 C 83.546875 46.351562 83.632812 46.375 83.714844 46.398438 C 84.050781 46.496094 84.292969 46.628906 84.453125 46.800781 C 84.609375 46.96875 84.6875 47.191406 84.695312 47.464844 C 84.699219 47.648438 84.664062 47.820312 84.601562 47.972656 C 84.539062 48.121094 84.441406 48.253906 84.3125 48.363281 C 84.183594 48.472656 84.027344 48.558594 83.839844 48.621094 C 83.652344 48.683594 83.4375 48.71875 83.199219 48.71875 C 82.703125 48.726562 82.246094 48.601562 81.816406 48.335938 L 82.242188 47.570312 C 82.394531 47.691406 82.546875 47.78125 82.695312 47.839844 C 82.847656 47.898438 82.996094 47.925781 83.140625 47.925781 C 83.308594 47.921875 83.429688 47.886719 83.507812 47.8125 C 83.589844 47.738281 83.628906 47.65625 83.625 47.570312 C 83.625 47.515625 83.613281 47.46875 83.59375 47.429688 C 83.570312 47.390625 83.535156 47.351562 83.488281 47.320312 C 83.4375 47.285156 83.375 47.253906 83.296875 47.226562 C 83.21875 47.199219 83.125 47.167969 83.011719 47.136719 C 82.878906 47.097656 82.75 47.058594 82.625 47.015625 C 82.496094 46.972656 82.382812 46.910156 82.28125 46.835938 C 82.183594 46.761719 82.101562 46.664062 82.039062 46.546875 C 81.976562 46.433594 81.941406 46.285156 81.941406 46.105469 C 81.9375 45.925781 81.964844 45.761719 82.027344 45.613281 C 82.089844 45.464844 82.175781 45.339844 82.292969 45.234375 C 82.40625 45.128906 82.546875 45.042969 82.714844 44.984375 C 82.882812 44.925781 83.070312 44.890625 83.277344 44.886719 C 83.46875 44.886719 83.671875 44.90625 83.886719 44.953125 C 84.097656 45 84.300781 45.066406 84.496094 45.160156 L 84.105469 45.90625 Z M 84.105469 45.910156 " fill-opacity="1" fill-rule="nonzero"/></g><g clip-path="url(#6977a356be)"><path fill="#000000" d="M 86.527344 44.992188 L 86.589844 48.621094 L 85.570312 48.636719 L 85.507812 45.011719 Z M 86.527344 44.992188 " fill-opacity="1" fill-rule="nonzero"/></g><g clip-path="url(#363bca2145)"><path fill="#000000" d="M 87.40625 46.851562 C 87.402344 46.582031 87.453125 46.328125 87.558594 46.097656 C 87.660156 45.863281 87.804688 45.660156 87.992188 45.480469 C 88.179688 45.304688 88.40625 45.164062 88.667969 45.0625 C 88.933594 44.960938 89.222656 44.90625 89.539062 44.902344 C 89.855469 44.894531 90.148438 44.941406 90.414062 45.03125 C 90.683594 45.125 90.917969 45.257812 91.109375 45.425781 C 91.304688 45.597656 91.457031 45.796875 91.570312 46.027344 C 91.683594 46.257812 91.738281 46.507812 91.742188 46.777344 C 91.75 47.042969 91.699219 47.296875 91.59375 47.53125 C 91.492188 47.765625 91.34375 47.96875 91.15625 48.144531 C 90.96875 48.324219 90.742188 48.460938 90.476562 48.5625 C 90.210938 48.664062 89.917969 48.722656 89.605469 48.726562 C 89.289062 48.730469 88.996094 48.6875 88.730469 48.59375 C 88.460938 48.5 88.234375 48.371094 88.039062 48.203125 C 87.847656 48.03125 87.691406 47.832031 87.582031 47.601562 C 87.472656 47.371094 87.414062 47.121094 87.40625 46.851562 Z M 88.472656 46.832031 C 88.472656 46.976562 88.507812 47.109375 88.566406 47.230469 C 88.628906 47.351562 88.710938 47.453125 88.8125 47.542969 C 88.914062 47.632812 89.03125 47.699219 89.167969 47.746094 C 89.300781 47.792969 89.445312 47.816406 89.59375 47.816406 C 89.742188 47.8125 89.882812 47.785156 90.015625 47.734375 C 90.148438 47.683594 90.265625 47.609375 90.367188 47.515625 C 90.464844 47.425781 90.546875 47.320312 90.601562 47.195312 C 90.65625 47.074219 90.683594 46.941406 90.683594 46.796875 C 90.679688 46.652344 90.648438 46.519531 90.589844 46.398438 C 90.527344 46.28125 90.445312 46.175781 90.339844 46.085938 C 90.234375 45.996094 90.117188 45.929688 89.980469 45.882812 C 89.847656 45.835938 89.707031 45.8125 89.558594 45.816406 C 89.40625 45.816406 89.265625 45.84375 89.132812 45.894531 C 89 45.949219 88.886719 46.019531 88.785156 46.113281 C 88.6875 46.203125 88.609375 46.3125 88.554688 46.433594 C 88.496094 46.554688 88.472656 46.691406 88.472656 46.835938 Z M 88.472656 46.832031 " fill-opacity="1" fill-rule="nonzero"/></g><g clip-path="url(#4c6f5624e8)"><path fill="#000000" d="M 92.636719 48.660156 L 92.574219 45.035156 L 93.59375 45.015625 L 95.511719 47.203125 L 95.472656 44.984375 L 96.488281 44.96875 L 96.550781 48.59375 L 95.535156 48.613281 L 93.617188 46.425781 L 93.65625 48.644531 Z M 92.636719 48.660156 " fill-opacity="1" fill-rule="nonzero"/></g><g clip-path="url(#032d839374)"><path fill="#000000" d="M 99.964844 47.984375 L 98.511719 48.011719 L 98.289062 48.644531 L 97.203125 48.664062 L 98.632812 45.011719 L 99.746094 44.992188 L 101.296875 48.59375 L 100.210938 48.613281 Z M 99.683594 47.273438 L 99.207031 46.078125 L 98.769531 47.289062 Z M 99.683594 47.273438 " fill-opacity="1" fill-rule="nonzero"/></g><g clip-path="url(#fc4889b7ce)"><path fill="#000000" d="M 102.914062 44.992188 L 102.960938 47.820312 L 104.183594 47.800781 L 104.199219 48.597656 L 101.960938 48.636719 L 101.898438 45.011719 Z M 102.914062 44.992188 " fill-opacity="1" fill-rule="nonzero"/></g><g clip-path="url(#9d5ecb0f42)"><path fill="#000000" d="M 117.71875 46.851562 C 117.714844 46.582031 117.765625 46.328125 117.867188 46.097656 C 117.96875 45.863281 118.117188 45.660156 118.304688 45.480469 C 118.492188 45.304688 118.71875 45.164062 118.980469 45.0625 C 119.246094 44.960938 119.535156 44.90625 119.851562 44.902344 C 120.167969 44.894531 120.457031 44.941406 120.726562 45.03125 C 120.996094 45.125 121.230469 45.257812 121.421875 45.425781 C 121.617188 45.597656 121.769531 45.796875 121.882812 46.027344 C 121.992188 46.257812 122.050781 46.507812 122.054688 46.777344 C 122.0625 47.042969 122.011719 47.296875 121.90625 47.53125 C 121.804688 47.765625 121.65625 47.96875 121.46875 48.144531 C 121.28125 48.324219 121.054688 48.460938 120.789062 48.5625 C 120.519531 48.664062 120.230469 48.722656 119.917969 48.726562 C 119.601562 48.730469 119.308594 48.6875 119.042969 48.59375 C 118.773438 48.5 118.542969 48.371094 118.351562 48.203125 C 118.160156 48.03125 118.007812 47.832031 117.894531 47.601562 C 117.78125 47.371094 117.726562 47.121094 117.71875 46.851562 Z M 118.785156 46.832031 C 118.785156 46.976562 118.820312 47.109375 118.878906 47.230469 C 118.9375 47.351562 119.023438 47.453125 119.125 47.542969 C 119.226562 47.632812 119.34375 47.699219 119.480469 47.746094 C 119.613281 47.792969 119.757812 47.816406 119.90625 47.816406 C 120.054688 47.8125 120.195312 47.785156 120.328125 47.734375 C 120.460938 47.683594 120.574219 47.609375 120.679688 47.515625 C 120.78125 47.421875 120.859375 47.320312 120.914062 47.195312 C 120.96875 47.074219 120.996094 46.941406 120.992188 46.796875 C 120.992188 46.652344 120.960938 46.519531 120.898438 46.398438 C 120.839844 46.28125 120.757812 46.175781 120.652344 46.085938 C 120.546875 45.996094 120.429688 45.929688 120.292969 45.882812 C 120.160156 45.835938 120.015625 45.8125 119.867188 45.816406 C 119.71875 45.816406 119.578125 45.84375 119.445312 45.894531 C 119.3125 45.949219 119.195312 46.019531 119.097656 46.113281 C 119 46.203125 118.921875 46.3125 118.867188 46.433594 C 118.808594 46.554688 118.78125 46.691406 118.785156 46.835938 Z M 118.785156 46.832031 " fill-opacity="1" fill-rule="nonzero"/></g><g clip-path="url(#20d47ef1f8)"><path fill="#000000" d="M 125.941406 48.59375 L 124.675781 48.613281 L 123.679688 47.238281 L 123.703125 48.628906 L 122.6875 48.648438 L 122.625 45.023438 L 124.207031 44.992188 C 124.429688 44.988281 124.617188 45.015625 124.78125 45.070312 C 124.945312 45.128906 125.082031 45.207031 125.1875 45.308594 C 125.292969 45.40625 125.375 45.527344 125.433594 45.660156 C 125.488281 45.792969 125.519531 45.9375 125.523438 46.089844 C 125.527344 46.367188 125.460938 46.589844 125.316406 46.765625 C 125.175781 46.9375 124.96875 47.058594 124.691406 47.125 L 125.945312 48.589844 Z M 123.671875 46.628906 L 123.863281 46.628906 C 124.066406 46.621094 124.21875 46.582031 124.324219 46.5 C 124.429688 46.421875 124.480469 46.308594 124.476562 46.164062 C 124.476562 46.023438 124.421875 45.914062 124.3125 45.835938 C 124.199219 45.761719 124.046875 45.726562 123.847656 45.730469 L 123.652344 45.730469 L 123.667969 46.628906 Z M 123.671875 46.628906 " fill-opacity="1" fill-rule="nonzero"/></g><g clip-path="url(#41880fdb31)"><path fill="#000000" d="M 128.195312 46.601562 L 130.214844 46.566406 C 130.21875 46.761719 130.214844 46.933594 130.199219 47.09375 C 130.183594 47.25 130.152344 47.394531 130.101562 47.53125 C 130.03125 47.722656 129.9375 47.890625 129.816406 48.035156 C 129.691406 48.1875 129.550781 48.308594 129.382812 48.410156 C 129.214844 48.511719 129.03125 48.585938 128.832031 48.640625 C 128.632812 48.699219 128.421875 48.726562 128.203125 48.730469 C 127.894531 48.738281 127.621094 48.695312 127.367188 48.605469 C 127.113281 48.515625 126.894531 48.390625 126.714844 48.226562 C 126.53125 48.058594 126.386719 47.859375 126.28125 47.628906 C 126.179688 47.390625 126.125 47.132812 126.117188 46.847656 C 126.113281 46.566406 126.15625 46.304688 126.253906 46.070312 C 126.347656 45.832031 126.488281 45.628906 126.664062 45.457031 C 126.839844 45.289062 127.0625 45.15625 127.3125 45.054688 C 127.566406 44.957031 127.855469 44.90625 128.167969 44.902344 C 128.574219 44.894531 128.9375 44.96875 129.246094 45.128906 C 129.558594 45.289062 129.804688 45.535156 129.992188 45.875 L 129.03125 46.261719 C 128.9375 46.066406 128.820312 45.925781 128.675781 45.839844 C 128.527344 45.753906 128.363281 45.714844 128.179688 45.71875 C 128.03125 45.71875 127.890625 45.75 127.765625 45.804688 C 127.644531 45.859375 127.535156 45.9375 127.449219 46.035156 C 127.363281 46.136719 127.296875 46.257812 127.25 46.394531 C 127.203125 46.53125 127.179688 46.6875 127.179688 46.855469 C 127.183594 47.011719 127.207031 47.152344 127.253906 47.285156 C 127.296875 47.414062 127.367188 47.527344 127.457031 47.621094 C 127.542969 47.714844 127.652344 47.789062 127.78125 47.839844 C 127.910156 47.890625 128.0625 47.917969 128.230469 47.910156 C 128.328125 47.910156 128.429688 47.898438 128.519531 47.875 C 128.613281 47.851562 128.695312 47.816406 128.769531 47.769531 C 128.84375 47.722656 128.90625 47.660156 128.949219 47.585938 C 129 47.511719 129.03125 47.421875 129.046875 47.316406 L 128.210938 47.332031 Z M 128.195312 46.601562 " fill-opacity="1" fill-rule="nonzero"/></g><g clip-path="url(#b9a01be49d)"><path fill="#000000" d="M 133.230469 47.984375 L 131.777344 48.011719 L 131.554688 48.644531 L 130.46875 48.664062 L 131.898438 45.011719 L 133.011719 44.992188 L 134.5625 48.59375 L 133.476562 48.613281 Z M 132.949219 47.273438 L 132.472656 46.078125 L 132.035156 47.289062 Z M 132.949219 47.273438 " fill-opacity="1" fill-rule="nonzero"/></g><g clip-path="url(#3c1e1fd3e3)"><path fill="#000000" d="M 134.960938 48.667969 L 134.898438 45.042969 L 135.917969 45.023438 L 137.835938 47.207031 L 137.796875 44.992188 L 138.808594 44.972656 L 138.871094 48.601562 L 137.859375 48.617188 L 135.941406 46.433594 L 135.980469 48.648438 Z M 134.960938 48.667969 " fill-opacity="1" fill-rule="nonzero"/></g><g clip-path="url(#c88c6eb41c)"><path fill="#000000" d="M 140.609375 44.992188 L 140.675781 48.621094 L 139.65625 48.636719 L 139.59375 45.011719 Z M 140.609375 44.992188 " fill-opacity="1" fill-rule="nonzero"/></g><g clip-path="url(#bddfd64264)"><path fill="#000000" d="M 142.816406 47.832031 L 144.457031 47.800781 L 144.472656 48.601562 L 141.121094 48.660156 L 142.925781 45.796875 L 141.382812 45.824219 L 141.371094 45.023438 L 144.609375 44.96875 L 142.816406 47.828125 Z M 142.816406 47.832031 " fill-opacity="1" fill-rule="nonzero"/></g><g clip-path="url(#d8405eba90)"><path fill="#000000" d="M 147.496094 47.984375 L 146.042969 48.011719 L 145.820312 48.644531 L 144.734375 48.664062 L 146.164062 45.011719 L 147.277344 44.992188 L 148.828125 48.59375 L 147.742188 48.613281 Z M 147.214844 47.273438 L 146.738281 46.078125 L 146.300781 47.289062 Z M 147.214844 47.273438 " fill-opacity="1" fill-rule="nonzero"/></g><g clip-path="url(#14b68516a9)"><path fill="#000000" d="M 150.664062 45.792969 L 150.710938 48.621094 L 149.695312 48.636719 L 149.644531 45.808594 L 148.808594 45.824219 L 148.796875 45.027344 L 151.488281 44.980469 L 151.5 45.777344 Z M 150.664062 45.792969 " fill-opacity="1" fill-rule="nonzero"/></g><g clip-path="url(#eaaddab1a7)"><path fill="#000000" d="M 152.898438 44.992188 L 152.960938 48.621094 L 151.945312 48.636719 L 151.882812 45.011719 Z M 152.898438 44.992188 " fill-opacity="1" fill-rule="nonzero"/></g><g clip-path="url(#98dfc2cc0c)"><path fill="#000000" d="M 153.542969 46.851562 C 153.539062 46.582031 153.585938 46.328125 153.691406 46.097656 C 153.796875 45.863281 153.941406 45.660156 154.128906 45.480469 C 154.316406 45.304688 154.539062 45.164062 154.804688 45.0625 C 155.066406 44.960938 155.359375 44.90625 155.675781 44.902344 C 155.992188 44.894531 156.28125 44.941406 156.550781 45.03125 C 156.820312 45.125 157.050781 45.257812 157.246094 45.425781 C 157.441406 45.597656 157.59375 45.796875 157.703125 46.027344 C 157.816406 46.257812 157.875 46.507812 157.878906 46.777344 C 157.886719 47.042969 157.835938 47.296875 157.730469 47.53125 C 157.625 47.765625 157.480469 47.96875 157.292969 48.144531 C 157.105469 48.324219 156.875 48.460938 156.609375 48.5625 C 156.34375 48.664062 156.054688 48.722656 155.742188 48.726562 C 155.421875 48.730469 155.128906 48.6875 154.863281 48.59375 C 154.597656 48.5 154.367188 48.371094 154.175781 48.203125 C 153.980469 48.03125 153.828125 47.832031 153.71875 47.601562 C 153.605469 47.371094 153.546875 47.121094 153.542969 46.851562 Z M 154.605469 46.832031 C 154.609375 46.976562 154.640625 47.109375 154.699219 47.230469 C 154.757812 47.351562 154.839844 47.453125 154.945312 47.542969 C 155.046875 47.632812 155.164062 47.699219 155.300781 47.746094 C 155.433594 47.792969 155.578125 47.816406 155.726562 47.816406 C 155.875 47.8125 156.015625 47.785156 156.148438 47.734375 C 156.28125 47.683594 156.398438 47.609375 156.5 47.515625 C 156.597656 47.425781 156.679688 47.320312 156.734375 47.195312 C 156.789062 47.074219 156.816406 46.941406 156.8125 46.796875 C 156.8125 46.652344 156.78125 46.519531 156.71875 46.398438 C 156.660156 46.28125 156.578125 46.175781 156.472656 46.085938 C 156.367188 45.996094 156.25 45.929688 156.113281 45.882812 C 155.980469 45.835938 155.835938 45.8125 155.6875 45.816406 C 155.539062 45.816406 155.398438 45.84375 155.265625 45.894531 C 155.132812 45.949219 155.019531 46.019531 154.917969 46.113281 C 154.820312 46.207031 154.742188 46.3125 154.6875 46.433594 C 154.628906 46.554688 154.601562 46.691406 154.605469 46.835938 Z M 154.605469 46.832031 " fill-opacity="1" fill-rule="nonzero"/></g><g clip-path="url(#c4e04b8192)"><path fill="#000000" d="M 158.511719 48.667969 L 158.449219 45.042969 L 159.464844 45.023438 L 161.382812 47.207031 L 161.34375 44.992188 L 162.359375 44.972656 L 162.421875 48.601562 L 161.40625 48.617188 L 159.488281 46.433594 L 159.527344 48.648438 Z M 158.511719 48.667969 " fill-opacity="1" fill-rule="nonzero"/></g><g clip-path="url(#f8a88d7b61)"><path fill="#000000" d="M 133.585938 34.941406 C 133.585938 34.007812 133.757812 33.140625 134.101562 32.335938 C 134.445312 31.53125 134.925781 30.828125 135.53125 30.226562 C 136.144531 29.628906 136.871094 29.160156 137.722656 28.820312 C 138.570312 28.480469 139.503906 28.3125 140.523438 28.3125 C 141.546875 28.3125 142.464844 28.480469 143.320312 28.820312 C 144.175781 29.160156 144.910156 29.628906 145.527344 30.226562 C 146.144531 30.828125 146.625 31.527344 146.964844 32.335938 C 147.308594 33.140625 147.480469 34.007812 147.480469 34.941406 C 147.480469 35.871094 147.308594 36.742188 146.964844 37.546875 C 146.621094 38.351562 146.140625 39.050781 145.527344 39.652344 C 144.910156 40.253906 144.175781 40.71875 143.320312 41.058594 C 142.464844 41.398438 141.535156 41.570312 140.523438 41.570312 C 139.515625 41.570312 138.570312 41.398438 137.722656 41.058594 C 136.871094 40.71875 136.140625 40.253906 135.53125 39.652344 C 134.921875 39.050781 134.445312 38.351562 134.101562 37.546875 C 133.757812 36.742188 133.585938 35.871094 133.585938 34.941406 Z M 137.695312 34.941406 C 137.695312 35.339844 137.769531 35.710938 137.921875 36.050781 C 138.074219 36.390625 138.277344 36.683594 138.535156 36.933594 C 138.792969 37.179688 139.09375 37.375 139.4375 37.515625 C 139.777344 37.652344 140.140625 37.722656 140.523438 37.722656 C 140.90625 37.722656 141.269531 37.652344 141.613281 37.515625 C 141.957031 37.375 142.257812 37.183594 142.519531 36.933594 C 142.785156 36.683594 142.992188 36.390625 143.144531 36.050781 C 143.292969 35.710938 143.371094 35.34375 143.371094 34.941406 C 143.371094 34.539062 143.292969 34.171875 143.144531 33.832031 C 142.992188 33.492188 142.785156 33.199219 142.519531 32.949219 C 142.257812 32.699219 141.957031 32.503906 141.613281 32.367188 C 141.269531 32.226562 140.90625 32.160156 140.523438 32.160156 C 140.140625 32.160156 139.777344 32.226562 139.4375 32.367188 C 139.09375 32.503906 138.792969 32.699219 138.535156 32.949219 C 138.277344 33.199219 138.074219 33.492188 137.921875 33.832031 C 137.769531 34.171875 137.695312 34.539062 137.695312 34.941406 Z M 35.144531 28.632812 L 39.503906 28.632812 L 39.503906 30.65625 C 39.96875 29.917969 40.542969 29.351562 41.214844 28.957031 C 41.890625 28.5625 42.675781 28.367188 43.574219 28.367188 L 43.949219 28.367188 C 44.085938 28.367188 44.242188 28.382812 44.417969 28.417969 L 44.417969 32.582031 C 43.84375 32.292969 43.214844 32.148438 42.539062 32.148438 C 41.527344 32.148438 40.769531 32.449219 40.261719 33.054688 C 39.757812 33.65625 39.503906 34.535156 39.503906 35.691406 L 39.503906 40.988281 L 35.144531 40.988281 L 35.144531 28.628906 Z M 54.730469 28.632812 L 59.113281 28.632812 L 59.113281 40.992188 L 54.730469 40.992188 L 54.730469 39.617188 C 53.800781 40.792969 52.539062 41.378906 50.949219 41.378906 C 50.046875 41.378906 49.222656 41.214844 48.46875 40.886719 C 47.714844 40.554688 47.054688 40.09375 46.492188 39.5 C 45.929688 38.902344 45.492188 38.207031 45.179688 37.402344 C 44.867188 36.597656 44.707031 35.722656 44.707031 34.777344 C 44.707031 33.894531 44.859375 33.054688 45.164062 32.257812 C 45.472656 31.464844 45.898438 30.769531 46.441406 30.175781 C 46.988281 29.582031 47.636719 29.109375 48.390625 28.765625 C 49.148438 28.421875 49.980469 28.25 50.898438 28.25 C 52.441406 28.25 53.71875 28.785156 54.730469 29.863281 Z M 49.238281 34.777344 C 49.238281 35.179688 49.3125 35.550781 49.453125 35.894531 C 49.597656 36.242188 49.796875 36.542969 50.046875 36.800781 C 50.292969 37.054688 50.589844 37.257812 50.933594 37.402344 C 51.28125 37.546875 51.652344 37.617188 52.054688 37.617188 C 52.457031 37.617188 52.804688 37.546875 53.152344 37.402344 C 53.496094 37.257812 53.792969 37.058594 54.042969 36.800781 C 54.289062 36.542969 54.492188 36.246094 54.644531 35.910156 C 54.796875 35.570312 54.875 35.210938 54.875 34.824219 C 54.875 34.441406 54.800781 34.078125 54.644531 33.730469 C 54.492188 33.382812 54.292969 33.082031 54.042969 32.824219 C 53.792969 32.570312 53.496094 32.367188 53.152344 32.222656 C 52.808594 32.078125 52.441406 32.007812 52.054688 32.007812 C 51.667969 32.007812 51.28125 32.078125 50.933594 32.222656 C 50.589844 32.367188 50.292969 32.566406 50.046875 32.824219 C 49.796875 33.085938 49.597656 33.375 49.453125 33.707031 C 49.3125 34.035156 49.238281 34.390625 49.238281 34.777344 Z M 69.496094 32.632812 C 68.742188 32.117188 67.980469 31.863281 67.207031 31.863281 C 66.789062 31.863281 66.402344 31.933594 66.039062 32.078125 C 65.679688 32.222656 65.359375 32.429688 65.085938 32.691406 C 64.8125 32.957031 64.601562 33.269531 64.449219 33.632812 C 64.292969 33.992188 64.21875 34.398438 64.21875 34.847656 C 64.21875 35.296875 64.292969 35.679688 64.449219 36.042969 C 64.601562 36.402344 64.808594 36.714844 65.074219 36.980469 C 65.339844 37.25 65.65625 37.453125 66.027344 37.59375 C 66.394531 37.738281 66.789062 37.8125 67.207031 37.8125 C 68.027344 37.8125 68.789062 37.53125 69.496094 36.96875 L 69.496094 40.679688 C 68.421875 41.144531 67.402344 41.378906 66.4375 41.378906 C 65.535156 41.378906 64.683594 41.222656 63.871094 40.921875 C 63.058594 40.617188 62.347656 40.179688 61.726562 39.609375 C 61.109375 39.039062 60.617188 38.355469 60.246094 37.5625 C 59.878906 36.769531 59.695312 35.878906 59.695312 34.898438 C 59.695312 33.917969 59.871094 33.023438 60.222656 32.210938 C 60.578125 31.398438 61.058594 30.703125 61.671875 30.117188 C 62.28125 29.53125 63.007812 29.070312 63.851562 28.742188 C 64.695312 28.414062 65.597656 28.25 66.558594 28.25 C 67.621094 28.25 68.597656 28.472656 69.5 28.921875 L 69.5 32.632812 Z M 75.132812 20.996094 L 75.132812 33.089844 L 79.710938 28.632812 L 85.683594 28.632812 L 79.492188 34.34375 L 86.046875 40.992188 L 79.925781 40.992188 L 75.132812 35.957031 L 75.132812 40.992188 L 70.773438 40.992188 L 70.773438 20.996094 Z M 88.722656 35.546875 C 88.722656 37.429688 89.605469 38.367188 91.371094 38.367188 C 92.320312 38.367188 93.035156 37.980469 93.515625 37.210938 L 97.730469 37.210938 C 96.882812 40.039062 94.753906 41.453125 91.347656 41.453125 C 90.304688 41.453125 89.347656 41.296875 88.484375 40.980469 C 87.617188 40.667969 86.871094 40.222656 86.253906 39.644531 C 85.632812 39.066406 85.15625 38.375 84.820312 37.570312 C 84.484375 36.769531 84.3125 35.871094 84.3125 34.875 C 84.3125 33.878906 84.472656 32.917969 84.796875 32.09375 C 85.117188 31.265625 85.574219 30.5625 86.167969 29.984375 C 86.761719 29.410156 87.484375 28.960938 88.324219 28.648438 C 89.167969 28.335938 90.121094 28.179688 91.179688 28.179688 C 92.238281 28.179688 93.164062 28.335938 94 28.648438 C 94.835938 28.960938 95.542969 29.417969 96.117188 30.007812 C 96.695312 30.605469 97.140625 31.328125 97.441406 32.1875 C 97.746094 33.046875 97.898438 34.015625 97.898438 35.09375 L 97.898438 35.546875 L 88.71875 35.546875 Z M 93.828125 33.019531 C 93.6875 32.40625 93.386719 31.917969 92.9375 31.550781 C 92.488281 31.179688 91.941406 30.996094 91.300781 30.996094 C 90.628906 30.996094 90.078125 31.171875 89.652344 31.527344 C 89.226562 31.878906 88.957031 32.375 88.84375 33.019531 L 93.832031 33.019531 Z M 104.09375 32.273438 L 104.09375 40.992188 L 99.730469 40.992188 L 99.730469 32.273438 L 98.285156 32.273438 L 98.285156 28.636719 L 99.730469 28.636719 L 99.730469 24.925781 L 104.09375 24.925781 L 104.09375 28.636719 L 106.570312 28.636719 L 106.570312 32.273438 Z M 113.421875 48.617188 L 109.058594 48.617188 L 109.058594 28.632812 L 113.421875 28.632812 L 113.421875 30.007812 C 114.351562 28.835938 115.621094 28.246094 117.226562 28.246094 C 118.109375 28.246094 118.933594 28.417969 119.695312 28.761719 C 120.457031 29.109375 121.121094 29.578125 121.683594 30.171875 C 122.246094 30.769531 122.683594 31.464844 122.996094 32.269531 C 123.308594 33.074219 123.464844 33.933594 123.464844 34.847656 C 123.464844 35.761719 123.308594 36.613281 122.996094 37.398438 C 122.683594 38.1875 122.25 38.878906 121.695312 39.472656 C 121.140625 40.066406 120.488281 40.53125 119.734375 40.871094 C 118.980469 41.207031 118.160156 41.375 117.277344 41.375 C 115.734375 41.375 114.449219 40.847656 113.421875 39.785156 Z M 118.914062 34.847656 C 118.914062 34.460938 118.84375 34.101562 118.710938 33.753906 C 118.574219 33.40625 118.375 33.105469 118.121094 32.847656 C 117.863281 32.59375 117.5625 32.386719 117.214844 32.234375 C 116.871094 32.085938 116.496094 32.007812 116.097656 32.007812 C 115.695312 32.007812 115.347656 32.078125 115.011719 32.222656 C 114.675781 32.367188 114.378906 32.566406 114.132812 32.824219 C 113.882812 33.085938 113.683594 33.382812 113.53125 33.730469 C 113.375 34.074219 113.300781 34.4375 113.300781 34.824219 C 113.300781 35.210938 113.375 35.570312 113.515625 35.910156 C 113.660156 36.246094 113.863281 36.539062 114.121094 36.789062 C 114.375 37.035156 114.679688 37.238281 115.023438 37.390625 C 115.367188 37.546875 115.734375 37.621094 116.121094 37.621094 C 116.507812 37.621094 116.867188 37.546875 117.203125 37.40625 C 117.539062 37.261719 117.832031 37.058594 118.082031 36.800781 C 118.332031 36.546875 118.53125 36.25 118.6875 35.910156 C 118.835938 35.574219 118.914062 35.222656 118.914062 34.851562 Z M 124.140625 28.632812 L 128.5 28.632812 L 128.5 30.65625 C 128.964844 29.917969 129.535156 29.351562 130.210938 28.957031 C 130.882812 28.5625 131.671875 28.367188 132.570312 28.367188 L 132.941406 28.367188 C 133.078125 28.367188 133.234375 28.382812 133.414062 28.417969 L 133.414062 32.582031 C 132.835938 32.292969 132.210938 32.148438 131.53125 32.148438 C 130.519531 32.148438 129.761719 32.449219 129.257812 33.054688 C 128.75 33.65625 128.496094 34.535156 128.496094 35.691406 L 128.496094 40.988281 L 124.136719 40.988281 L 124.136719 28.628906 Z M 124.140625 28.632812 " fill-opacity="1" fill-rule="nonzero"/></g><path fill="#000000" d="M 21.898438 34.847656 C 21.898438 35.765625 21.746094 36.617188 21.433594 37.398438 C 21.117188 38.1875 20.6875 38.875 20.128906 39.472656 C 19.578125 40.066406 18.921875 40.53125 18.167969 40.867188 C 17.410156 41.207031 16.59375 41.375 15.710938 41.375 C 14.777344 41.375 13.9375 41.183594 13.191406 40.789062 L 13.191406 37.183594 C 13.308594 37.261719 13.441406 37.332031 13.578125 37.386719 C 13.925781 37.542969 14.285156 37.617188 14.675781 37.617188 C 15.066406 37.617188 15.421875 37.546875 15.757812 37.398438 C 16.097656 37.253906 16.386719 37.054688 16.640625 36.796875 C 16.890625 36.539062 17.089844 36.242188 17.246094 35.90625 C 17.394531 35.570312 17.472656 35.214844 17.472656 34.84375 C 17.472656 34.789062 17.472656 34.738281 17.464844 34.683594 L 17.472656 34.683594 L 17.472656 28.511719 C 17.695312 28.578125 17.914062 28.664062 18.132812 28.761719 C 18.894531 29.105469 19.558594 29.574219 20.121094 30.171875 C 20.679688 30.769531 21.121094 31.464844 21.433594 32.269531 C 21.75 33.074219 21.902344 33.933594 21.902344 34.847656 Z M 21.898438 34.847656 " fill-opacity="1" fill-rule="nonzero"/><g clip-path="url(#ffc91b1439)"><path fill="#f76900" d="M 29.28125 34.683594 C 29.28125 36.644531 28.917969 38.46875 28.195312 40.164062 C 27.472656 41.855469 26.464844 43.332031 25.164062 44.59375 C 23.871094 45.851562 22.328125 46.835938 20.527344 47.550781 C 18.730469 48.261719 16.773438 48.617188 14.648438 48.617188 C 14.148438 48.617188 13.65625 48.597656 13.175781 48.558594 L 13.175781 45.074219 C 13.65625 45.136719 14.144531 45.167969 14.640625 45.167969 C 16.085938 45.167969 17.453125 44.90625 18.746094 44.382812 C 20.039062 43.867188 21.183594 43.136719 22.171875 42.195312 C 23.164062 41.253906 23.941406 40.144531 24.511719 38.871094 C 25.085938 37.59375 25.371094 36.199219 25.371094 34.6875 C 25.371094 33.175781 25.085938 31.785156 24.511719 30.507812 C 23.941406 29.230469 23.164062 28.121094 22.171875 27.179688 C 21.183594 26.242188 20.039062 25.511719 18.746094 24.988281 C 18.324219 24.820312 17.894531 24.675781 17.457031 24.5625 L 17.457031 20.984375 C 18.527344 21.160156 19.554688 21.441406 20.527344 21.828125 C 22.328125 22.535156 23.871094 23.523438 25.164062 24.785156 C 26.460938 26.046875 27.472656 27.519531 28.195312 29.210938 C 28.917969 30.902344 29.28125 32.726562 29.28125 34.6875 Z M 29.28125 34.683594 " fill-opacity="1" fill-rule="nonzero"/></g><g clip-path="url(#fa04383f31)"><path fill="#000000" d="M 4.832031 30.503906 C 4.257812 31.78125 3.972656 33.171875 3.972656 34.683594 C 3.972656 36.195312 4.257812 37.59375 4.832031 38.867188 C 5.398438 40.144531 6.171875 41.253906 7.148438 42.191406 C 7.261719 42.300781 7.378906 42.410156 7.492188 42.515625 L 7.492188 28.628906 L 11.855469 28.628906 L 11.855469 30.003906 C 12.789062 28.832031 14.058594 28.25 15.660156 28.25 C 15.820312 28.25 15.976562 28.253906 16.132812 28.269531 L 16.132812 32.429688 C 16.019531 32.351562 15.898438 32.289062 15.769531 32.234375 C 15.425781 32.082031 15.054688 32.007812 14.652344 32.007812 C 14.25 32.007812 13.90625 32.078125 13.566406 32.226562 C 13.230469 32.367188 12.9375 32.570312 12.6875 32.824219 C 12.4375 33.085938 12.238281 33.386719 12.085938 33.730469 C 12.027344 33.863281 11.980469 34.003906 11.949219 34.140625 C 11.945312 34.144531 11.945312 34.148438 11.945312 34.152344 C 11.886719 34.367188 11.859375 34.597656 11.859375 34.828125 C 11.859375 34.859375 11.859375 34.890625 11.863281 34.917969 L 11.859375 34.917969 L 11.859375 48.398438 C 10.773438 48.222656 9.746094 47.941406 8.765625 47.554688 C 6.980469 46.84375 5.445312 45.855469 4.164062 44.59375 C 2.878906 43.335938 1.878906 41.855469 1.15625 40.167969 C 0.433594 38.472656 0.0703125 36.648438 0.0703125 34.6875 C 0.0703125 32.726562 0.433594 30.902344 1.15625 29.210938 C 1.878906 27.519531 2.882812 26.046875 4.164062 24.785156 C 5.449219 23.523438 6.984375 22.539062 8.765625 21.828125 C 10.550781 21.113281 12.515625 20.757812 14.660156 20.757812 C 15.164062 20.757812 15.65625 20.777344 16.132812 20.816406 L 16.132812 24.304688 C 15.648438 24.238281 15.152344 24.207031 14.652344 24.207031 C 13.210938 24.207031 11.839844 24.464844 10.550781 24.988281 C 9.257812 25.511719 8.121094 26.242188 7.148438 27.179688 C 6.175781 28.121094 5.402344 29.230469 4.832031 30.507812 Z M 4.832031 30.503906 " fill-opacity="1" fill-rule="nonzero"/></g></svg>