<svg width="218" height="93" viewBox="0 0 218 93" fill="none" xmlns="http://www.w3.org/2000/svg">
<g clip-path="url(#clip0_9432_85)">
<path d="M113.044 59.1855H114.392L115.74 59.5812L117.326 60.2142L119.071 61.0054L122.56 62.4297L123.749 63.0627L124.78 63.933L125.256 64.566L125.732 65.5155L126.049 66.7815V68.1266L125.573 69.4717L122.798 75.8808L121.926 77.8589L121.133 79.2832L120.26 80.3909L119.388 81.1031L118.278 81.7361L117.326 82.0525L115.978 82.2899L114.471 82.369L113.52 82.6064L112.568 83.0812L111.696 83.7933L110.982 84.6637L110.348 85.7714L109.237 88.066L108.365 90.2024L107.81 91.7849L107.413 92.4179L106.938 92.3387L105.034 91.4684L104.559 91.1519L104.638 90.6771L105.669 88.7781L107.017 85.7714L107.731 83.9515L107.969 83.002L108.048 82.2108L109.079 81.3404L109.951 80.4701L110.665 79.5997L111.141 78.8876L111.378 78.3337L111.854 77.3051L112.171 76.1973L112.33 75.2478V72.7158L111.934 71.2125L111.458 70.0256L110.744 68.7596L110.03 67.8893L108.999 66.8606L107.731 65.9903L107.572 65.832L107.889 65.199L108.92 62.8253L109.475 61.7175L110.11 60.8472L110.744 60.2142L111.775 59.5812L113.044 59.1855Z" fill="#F67F26"/>
<path d="M102.497 64.5654L104.162 64.6446L105.828 65.0402L107.096 65.5149L108.445 66.3853L109.238 67.0183L110.348 68.126L111.061 69.1547L111.696 70.4206L112.092 71.4493L112.41 72.7153V75.2472L112.092 76.8297L111.696 77.8584L111.299 78.5705L111.061 79.1244L110.427 79.9947L109.317 81.1816L108.762 81.7355L108.048 82.2893L106.541 83.0015L105.035 83.4762L103.528 83.7136H102.338L100.594 83.4762L99.3249 83.0806L98.0561 82.4476L96.8666 81.6563L95.8357 80.7068L94.9634 79.6782L94.1704 78.3331L93.6946 77.1462L93.3774 75.9594L93.2188 75.0099V73.4274L93.4567 71.924L94.0118 70.2624L94.8048 68.8382L95.4392 67.9678L96.3908 67.0183L97.501 66.1479L98.6112 65.5149L99.8007 65.0402L101.466 64.6446L102.497 64.5654Z" fill="#91C859"/>
<path d="M85.8436 26.1113H86.3988L87.0332 26.507L87.509 27.1399L88.6192 29.4346L89.3329 30.3049L89.6501 30.9379L90.2052 32.2039L90.9189 33.0743L91.7119 34.4194L91.8705 34.4985L91.7912 30.5423L91.5533 28.8807L91.7119 28.0894V27.1399L91.9498 26.6652L92.3463 26.4278L93.2979 26.2696L94.5668 26.1905H96.2321L97.263 26.3487L97.7388 26.7443L97.8974 27.2982V30.3049L97.7388 33.7864V40.9076L97.8181 42.411V43.7561L97.6595 44.6265L97.4216 45.0221L96.9458 45.3386L96.0735 45.576L95.1219 45.6551H92.9014L92.267 45.4177L91.474 44.7847L90.681 43.8352L89.9673 42.8066L89.095 41.6197L87.9848 39.5625L87.1125 38.2174L86.4781 37.1096L86.2402 37.0305L86.3988 37.98L86.4781 40.7494V43.3605L86.3195 44.1517L86.2402 44.943L86.0022 45.2595L85.1299 45.4969L83.2267 45.1804L82.9888 45.1012H81.6407L81.0063 44.7847L80.5305 44.2309L80.4512 44.0726V42.6484L80.5305 41.2241V37.1096L80.6098 34.9733V33.549L80.5305 32.4413V26.7443L80.927 26.3487L81.1649 26.2696L82.2751 26.1905L85.8436 26.1113Z" fill="#060707"/>
<path d="M101.784 26.0322H106.066L106.621 26.2696L106.859 26.5861L106.939 28.0895L107.018 28.406V30.305L108.049 29.2763L108.921 28.5642L109.397 28.1686L110.111 27.2191L110.745 26.507L111.379 26.1905L117.248 26.2696L117.565 26.5861L117.724 26.9026L117.406 27.5356L116.693 28.6433L116.217 29.4346L115.82 30.0676L115.107 30.8588L114.472 31.6501L113.441 33.0743L112.648 34.1029L112.331 34.6568L112.41 35.1316L112.886 35.9228L113.759 37.1097L114.472 38.2965L115.424 40.1164L116.217 41.145L116.772 41.778L117.961 43.677L118.437 44.2309L118.596 44.5474V45.0221L118.041 45.4969L116.772 45.6551H112.648L111.935 45.4177L111.538 45.1012L110.824 44.0726L110.111 42.9649L109.318 41.778L108.525 40.512L108.287 40.2746L107.732 40.3538L107.414 40.512L107.256 40.9076L107.177 41.0659L107.097 43.677V45.1804L106.78 45.576L106.542 45.7342H103.608L101.705 45.576L101.07 45.4177V45.2595L100.832 45.1804V43.9144L100.912 42.7275V40.3538L100.832 36.3184L100.674 34.9733V33.5491L100.753 32.3622L100.674 28.406V27.0608L100.912 26.507L101.308 26.1905L101.784 26.0322Z" fill="#060707"/>
<path d="M160.388 26.1113H162.37L163.719 26.4278L164.67 26.8234L165.701 27.5356L166.573 28.2477L167.049 28.8016L167.208 29.5137L166.97 30.1467L166.415 30.9379L165.622 32.0457L165.225 32.5204L164.829 32.8369L164.194 32.9952L163.639 32.8369L162.529 31.9665L161.895 31.5709L161.34 31.4127H160.229L159.912 31.7292L159.991 32.1248L160.705 32.4413L162.45 32.916L164.353 33.7073L165.463 34.3403L166.415 35.2107L166.97 35.9228L167.366 36.714L167.684 37.9009L167.763 38.5339V40.512L167.604 41.3032L167.208 42.3319L166.256 43.5979L165.463 44.31L164.67 44.8639L163.401 45.4968L162.37 45.8133L161.34 45.8925L160.15 45.7342L158.247 45.3386L156.978 44.943L155.313 44.2309L154.123 43.5187L153.409 42.9649L153.092 42.4901L152.934 41.6197L153.171 40.7494L154.123 39.4043L154.599 38.8504L155.392 38.2965L155.63 38.2174H156.502L157.057 38.4548L157.85 39.246L158.643 39.7999L159.595 40.2746L159.833 40.3538H160.546L161.102 40.1164L161.26 39.9581V39.3251L160.705 38.7713L158.564 37.5844L157.771 37.1888L156.344 36.6349L155.313 35.9228L154.678 35.3689L154.123 34.5777L153.647 33.3908L153.409 32.5204L153.33 31.9665V31.0171L153.568 29.9884L154.123 28.8807L154.995 27.8521L155.868 27.1399L157.057 26.507L158.247 26.1905H159.991L160.388 26.1113Z" fill="#060707"/>
<path d="M120.498 26.5859H121.529L123.353 26.8233H125.097L127.397 26.6651H131.758L132.472 26.9024L132.789 27.2981L133.027 28.1684L133.265 29.9092V30.6213L133.027 31.1752L132.551 31.5708L132.076 31.729L130.172 31.6499L128.745 31.8873H127.873L127.397 31.8082H125.176L124.701 32.0455L124.542 32.2829V33.3907L124.78 33.7863L125.494 33.9445L126.604 33.8654H130.41L130.807 34.1819L131.045 34.7358L131.124 35.1314V36.793L130.807 37.5843L130.331 37.9008L125.097 38.059L124.463 38.2173L124.383 38.3755L124.463 39.5624L124.78 40.1954L124.939 40.2745H130.886L131.679 40.1162L132.314 40.1954L132.948 40.5119L133.345 41.224L133.503 42.4109V43.2021L133.424 44.0725L133.107 44.5472L132.631 44.9428L131.838 45.1802L127.873 45.2593H120.736L120.022 44.7846L119.705 44.2307L119.625 43.756L119.546 41.3822L119.388 40.5119L119.229 37.6634L119.07 35.9226V33.7863L119.229 31.9664L119.308 31.1752V28.0102L119.467 27.3772L119.784 26.9024L120.181 26.6651L120.498 26.5859Z" fill="#060707"/>
<path d="M113.203 3.79785L113.679 3.87698L115.979 3.9561L116.375 4.2726L116.534 4.5891L116.613 6.64634L116.534 7.04196L116.455 9.02007L116.613 9.73219V17.1699L116.693 17.3282H122.402L123.116 17.5655L123.354 17.9612L123.275 21.1261L123.116 21.8383L122.561 22.4713L122.085 22.6295H119.23L117.168 22.7086L111.221 22.7878L110.586 22.6295L110.19 22.1548L110.111 21.9174V20.3349L110.19 19.781V17.4073L110.111 14.0049L110.031 12.0268V10.2861L110.111 9.81132L110.269 4.2726L110.666 4.03523L113.203 3.79785Z" fill="#060707"/>
<path d="M128.111 3.79785L128.507 3.87698L130.807 3.9561L131.124 4.11435L131.362 4.50997L131.441 6.72546L131.362 7.04196V9.4157L131.441 9.81132L131.521 16.3787L131.441 16.616V17.1699L131.521 17.3282H137.23L137.944 17.5655L138.182 17.882V19.7019L138.103 21.2844L137.865 21.9965L137.548 22.3921L136.913 22.6295H134.138L131.996 22.7086L125.97 22.7878L125.494 22.6295L125.097 22.2339L124.939 21.8383V20.7305L125.018 20.0184V15.983L124.939 13.3719L124.859 12.1059V10.2069L124.939 10.0487L125.097 4.35172L125.177 4.11435L125.414 4.03523L128.111 3.79785Z" fill="#060707"/>
<path d="M102.734 3.63965H105.193L106.144 3.87702L106.541 4.35177L106.779 5.61776L107.096 8.38712V10.1279L106.858 12.5807V13.7676L107.175 14.8753L107.334 16.4578L107.175 17.8821L107.096 20.9679L106.858 21.7592L106.462 22.3922L105.827 22.7878L105.193 22.946H103.686L101.704 22.7878L101.307 22.6295L100.831 22.0757L100.752 21.6009V17.8821L100.831 16.7743V14.9545L100.752 14.0841V11.3147L100.831 10.5235V8.70362L100.752 7.75413L100.831 4.74739L101.069 4.19352L101.466 3.7979L102.734 3.63965Z" fill="#060707"/>
<path d="M72.6012 26.3486H75.7733L76.487 26.5069L76.8835 26.8234L77.0421 27.2981L77.3593 29.751L77.5179 31.0961V32.5995L77.28 35.2106V36.4766L77.5179 37.1887L77.6765 38.4547L77.5972 40.4328L77.5179 43.5187L77.28 44.4682L76.7249 45.1803L76.0905 45.4968L75.7733 45.5759H73.5529L72.1254 45.4177L71.5703 45.1803L71.3324 44.9429L71.1738 44.1517V40.5119L71.2531 39.2459V37.8217L71.1738 36.714V33.9446L71.2531 32.8368V27.2981L71.491 26.8234L71.9668 26.4278L72.6012 26.3486Z" fill="#060707"/>
<path d="M93.9325 48.7412H94.6462L95.0427 48.8995L95.3599 49.2951L95.4392 49.7698V51.6688L95.5978 51.7479L95.7564 51.3523L96.5494 50.3237L97.1838 49.3742L97.5803 48.9786L98.1354 48.7412H99.0077L99.5628 48.9786L99.6421 49.3742L99.2456 50.1655L98.4526 51.1941L97.7389 51.9853L97.4217 52.3018L97.5803 52.6183L98.6112 53.6469L99.3249 54.5964L99.88 55.5459L99.9593 56.0207L99.8007 56.3372L99.4042 56.4954H98.2147L97.7389 56.258L96.7873 54.9129L95.7564 53.6469L95.5978 53.3304L95.4392 53.4887V55.3086L95.2806 56.0207L94.8841 56.4163L94.7255 56.4954H94.0911L93.3774 56.258L93.2188 55.8624V49.2951L93.4567 48.8995L93.9325 48.7412Z" fill="#F67F26"/>
<path d="M109.951 48.7412H113.44L114.313 48.8203L114.709 49.2951V50.0863L114.392 50.6402L114.233 50.7193H111.379L111.458 51.6688L113.916 51.8271L114.154 52.3018V52.8557L113.916 53.2513L113.758 53.3304L111.458 53.4096L111.379 54.5173H114.233L114.709 54.9129L114.868 55.625L114.63 56.1789L114.392 56.4163L114.075 56.4954H110.189L109.475 56.3372L109.238 56.0998L109.158 54.9129V49.3742L109.396 48.9786L109.951 48.7412Z" fill="#F67F26"/>
<path d="M87.747 48.6611H89.0952L90.2054 48.9776L90.9191 49.5315L91.2363 50.1645V50.7975L90.7605 51.3514L90.5226 51.5096H90.0468L89.6503 51.114L89.3331 50.8766L88.4607 50.7184L87.6677 50.9557L87.1126 51.5887L86.954 52.0635V53.1712L87.2712 53.9625L87.747 54.3581L87.9849 54.4372H89.0952L89.7296 54.1207L90.0468 53.8042H90.5226L91.2363 54.4372L91.3156 54.5955V55.2285L90.8398 55.8615L90.1261 56.3362L89.2538 56.5736H87.747L86.7161 56.2571L86.0817 55.8615L85.4473 55.3076L84.8922 54.3581L84.6543 53.4877V51.747L84.8129 51.0349L85.2887 50.0854L85.6059 49.6898L86.3989 49.1359L87.1126 48.8194L87.747 48.6611Z" fill="#F67F26"/>
<path d="M102.576 48.7412H103.211L103.845 48.9786L104.004 49.216L104.083 54.4382L106.938 54.5173L107.334 54.9921L107.414 55.2294V55.8624L107.017 56.4163L106.7 56.4954H102.735L102.1 56.3372L101.863 56.0207L101.783 55.3086V49.6907L101.942 49.0577L102.576 48.7412Z" fill="#F67F26"/>
<path d="M142.148 48.7412L143.021 48.8203L143.417 49.0577L143.576 49.4533L143.655 54.4382L146.431 54.5173L146.748 54.8338L146.907 55.2294V55.8624L146.431 56.4163L146.114 56.4954H142.069L141.514 56.258L141.355 55.625V49.216L141.673 48.8995L142.148 48.7412Z" fill="#F67F26"/>
<path d="M134.773 48.7412H135.329L135.963 48.9786L136.122 49.216L136.201 50.0072V54.1217L136.28 54.4382L139.056 54.5173L139.452 54.9129L139.532 55.1503V55.7833L139.214 56.3372L138.818 56.4954H134.694L134.218 56.258L133.98 55.8624V49.216L134.298 48.8995L134.773 48.7412Z" fill="#F67F26"/>
<path fill-rule="evenodd" clip-rule="evenodd" d="M56.8995 26.0322L55.0756 25.9531L53.7275 26.1114L52.4586 26.4279L51.8242 26.9026L51.507 27.5356L51.4277 28.406L51.5863 29.2764V31.1753L51.507 32.204V33.5491L51.5863 34.4195L51.7449 35.2107V37.3471L51.5863 43.1232L51.6656 43.677L51.9828 44.5474L52.3 44.943L52.9345 45.4178L53.8861 45.6551L57.2167 45.7343L57.296 45.8134L57.9304 45.8925L59.5957 45.576L61.8955 45.0221L63.5608 44.4683L64.7503 43.8353L65.7019 43.1232L66.4949 42.2528L67.1293 41.3824L68.081 39.5626L68.7154 38.2966L69.0326 36.9514V34.9733L68.7947 33.47L68.3189 31.8083L67.7638 30.7006L67.2086 29.9094L66.4156 29.1972L64.9882 28.3269L63.9573 27.4565L63.1643 26.9817L62.4506 26.7444L60.4681 26.507L56.8995 26.0322ZM60.0712 32.5205H59.1196L58.961 32.5996L58.6438 33.3118V36.7932L58.5645 38.2966L59.0403 38.8505L59.5954 38.9296L60.2298 38.6131L61.1021 37.9801L61.7365 37.1889L62.0537 36.3185V35.2107L61.8158 34.1821L61.4986 33.5491L60.8642 32.9953L60.0712 32.5205Z" fill="#060707"/>
<path fill-rule="evenodd" clip-rule="evenodd" d="M86.0026 3.32324H84.1787L82.3548 3.63974L81.9582 3.79799L81.4031 4.27274L81.0859 4.90573V6.01348L81.2445 6.7256V7.91247L81.0859 9.57408V10.8401L81.3238 12.5808V15.2711L81.2445 18.8317L81.1652 20.1768L81.2445 20.968L81.4031 21.601L81.8789 22.3131L82.5927 22.7879L83.7029 23.0253L86.8749 23.1044L87.1128 23.1835L88.3023 23.1044L90.7607 22.5505L92.426 22.0758L93.6155 21.601L94.8843 20.8098L95.6773 20.0977L96.4703 19.069L97.1048 17.9613L98.0564 16.2205L98.3736 15.4293L98.6115 14.3216L98.6908 13.1347L98.6115 12.1061L98.3736 10.761L97.8185 8.94109L97.422 8.14984L96.8669 7.27947L96.1531 6.64647L94.6464 5.69698L93.6948 4.90573L92.8225 4.35186L92.1881 4.11449L90.2849 3.87711L87.9058 3.56062L86.0026 3.32324ZM89.572 9.81152H88.6996L88.4617 10.0489L88.2238 10.8401V14.4799L88.1445 15.5876L88.3824 15.9832L88.8582 16.2997L89.2547 16.2206L90.0478 15.825L90.6822 15.2711L91.0787 14.8755L91.3959 14.4007L91.6338 13.6886V12.5018L91.5545 11.9479L91.3166 11.2358L90.9201 10.6819L90.2857 10.2071L89.572 9.81152Z" fill="#060707"/>
<path d="M81.1661 48.7412L82.197 48.8203L82.5142 49.1368L82.5935 49.3742V55.9415L82.197 56.4163L81.8005 56.4954H81.2454L80.611 56.258L80.4523 56.0998L80.373 51.9062V49.3742L80.611 48.9786L81.1661 48.7412Z" fill="#F67F26"/>
<path fill-rule="evenodd" clip-rule="evenodd" d="M142.545 26.0322H140.959L140.166 26.1114L137.232 26.2696L136.201 26.4278L135.804 26.6652L135.566 27.3773V32.6787L135.646 35.5272V39.246L135.804 41.8571V44.943L136.042 45.4969L136.677 45.6551L139.928 45.7342H141.355L141.831 45.576L142.228 45.1012V43.7561L142.069 41.6989V39.6417L142.386 39.3252H142.862L143.893 41.2241L144.527 42.0945L145.162 43.2023L145.955 45.4177L146.351 45.8134H148.017L148.73 45.7342H151.268L151.982 45.6551L152.299 45.4177L152.378 45.0221L152.061 43.8353L151.744 43.2023L150.951 41.8571L149.841 39.7999L149.444 38.7713L148.968 37.5053L149.048 37.0305H149.206L149.92 36.3184L150.792 35.3689L151.347 34.2612L151.585 33.3117V31.5709L151.347 30.5423L150.872 29.4346L150.237 28.406L149.365 27.5356L148.175 26.8235L146.906 26.507L144.845 26.2696L142.545 26.0322ZM143.892 31.4121L142.068 31.333L141.83 31.5704L141.672 32.5199V33.9441L142.068 34.1815H143.734L144.289 34.1024L145.082 33.865L145.32 33.6276L145.796 32.6781L145.716 32.2825L145.161 31.8078L143.892 31.4121Z" fill="#060707"/>
<path d="M102.655 71.9238H103.369L104.003 72.2403L104.479 72.9524V73.7437L104.003 74.4558L103.369 74.7723H102.655L102.021 74.4558L101.704 74.0602L101.545 73.6646V72.9524L102.021 72.2403L102.655 71.9238Z" fill="#FDFDFD"/>
<path d="M100.118 77.4629H101.149L101.942 77.8585L102.339 78.4124V78.9663L101.942 79.441L101.229 79.6784H100.674L99.9598 79.441L99.4047 78.9663L99.2461 78.6498V78.0959L99.5633 77.7003L100.118 77.4629Z" fill="#FDFDFD"/>
<path d="M96.7086 71.6865L97.2638 71.7656L97.6603 72.0821L97.9775 72.7151V73.6646L97.5017 74.3768L97.1052 74.6141H96.6293L95.9949 74.1394L95.6777 73.4273V72.8734L95.9949 72.1613L96.4707 71.7656L96.7086 71.6865Z" fill="#FDFDFD"/>
<path d="M107.574 75.5645H108.367L108.922 76.0392L109.001 76.5139L108.842 77.1469L108.287 77.7799L107.574 78.0964H107.098L106.622 77.7799L106.305 77.3843V76.6722L106.78 76.0392L107.018 75.8018L107.574 75.5645Z" fill="#F67F26"/>
<path d="M106.938 68.8389H107.652L108.366 69.3136L108.604 69.551L108.842 70.184L108.762 70.8961L108.366 71.2917L108.049 71.45H107.493L106.938 71.1335L106.463 70.5796L106.225 70.1049V69.551L106.542 69.0762L106.938 68.8389Z" fill="#F67F26"/>
<path d="M100.911 66.623H101.546L102.18 66.9395L102.497 67.3352L102.577 67.8099L102.339 68.2847L101.625 68.7594L101.387 68.8385H100.436L99.9598 68.522L99.7219 68.2847L99.6426 68.0473V67.4934L100.118 66.9395L100.594 66.7022L100.911 66.623Z" fill="#FDFDFD"/>
<path d="M105.59 80.2324H106.383L106.779 80.4698V80.9445L106.066 81.5775L105.273 81.8149H104.48L104.083 81.5775L104.004 81.1028L104.638 80.5489L105.59 80.2324Z" fill="#FDFDFD"/>
<path d="M110.745 72.3994H111.221L111.459 72.6368L111.618 73.1115L111.697 74.2193L111.459 74.9314L111.221 75.1688H110.745L110.507 74.8523L110.349 74.4567L110.27 73.5072L110.507 72.795L110.745 72.3994Z" fill="#F67F26"/>
<path d="M94.8043 76.9092L95.3594 76.9883L95.9938 77.6213L96.3903 78.3334L96.5489 79.1247L96.2317 79.4412L95.6766 79.362L95.1215 78.729L94.6457 77.7796L94.5664 77.2257L94.8043 76.9092Z" fill="#FDFDFD"/>
<path fill-rule="evenodd" clip-rule="evenodd" d="M75.6146 48.7412H73.1563L72.5219 48.9786L72.3633 49.2951V55.5459L72.4426 56.1789L72.5219 56.258L73.2356 56.4954H73.7907L74.3458 56.258L74.5837 55.8624V53.9634H76.0111L76.8041 53.8052L77.5179 53.4096L78.073 52.7766L78.3902 52.0644L78.4695 51.1941L78.3109 50.482L77.9937 49.849L77.5179 49.2951L76.7248 48.8995L75.6146 48.7412ZM75.5356 50.6396H74.6633L74.584 50.7188V52.2221H75.6942L75.9321 52.143L76.2493 51.8265V51.0353L76.0907 50.877L75.5356 50.6396Z" fill="#F67F26"/>
<path fill-rule="evenodd" clip-rule="evenodd" d="M117.484 48.7412H120.339L121.291 48.8995L122.005 49.216L122.56 49.7698L122.877 50.5611L122.798 51.2732L122.48 51.9062L122.084 52.2227L122.163 52.4601L122.639 52.7766L123.115 53.5678L123.194 53.8052V54.6756L122.798 55.4668L122.163 56.0207L121.449 56.3372L120.339 56.4954H117.643L116.929 56.258L116.771 56.0207L116.691 55.3877V53.8052L116.771 49.2951L116.929 48.9786L117.484 48.7412ZM118.912 53.251H120.34L120.736 53.4092L120.974 53.8048L120.895 54.3587L120.498 54.6752L120.022 54.7543H118.991L118.912 54.6752V53.251ZM120.102 50.4814H118.991L118.912 50.5606V51.8266H120.34L120.657 51.6683L120.736 50.9562L120.498 50.6397L120.102 50.4814Z" fill="#F67F26"/>
<path d="M104.48 65.4355H105.114L105.986 65.6729L106.938 66.1477L107.097 66.3059V66.7015L106.7 66.7807L105.59 66.5433L104.638 66.0685L104.4 65.8312L104.48 65.4355Z" fill="#FDFDFD"/>
<path fill-rule="evenodd" clip-rule="evenodd" d="M128.826 48.7412H127.795L127.398 48.8995L126.764 49.3742L126.447 49.9281L125.416 53.0931L124.781 55.4668V56.0998L124.94 56.258L125.574 56.4954H126.447L126.764 56.3372L127.24 55.625L127.477 54.7547H129.222L129.539 55.7042L129.857 56.258L130.332 56.4954H131.284L131.522 56.4163L131.918 56.0998L131.998 55.5459L131.205 52.8557L130.332 50.1655L129.936 49.3742L129.46 48.9786L128.826 48.7412ZM128.508 50.877H128.27L127.794 52.3803L127.715 53.0133H128.984L128.904 52.3012L128.508 50.877Z" fill="#F67F26"/>
<path d="M96.7075 67.4932L97.0247 67.5723L96.9454 68.047L96.3903 68.7592L95.7559 69.4713L95.2801 69.7087L94.9629 69.6295L95.2801 68.9965L96.311 67.8097L96.7075 67.4932Z" fill="#FDFDFD"/>
<path d="M98.8488 82.21L99.7211 82.3682L101.149 82.9221L101.386 83.2386H100.831L99.4039 82.7638L98.7695 82.4473L98.8488 82.21Z" fill="#FDFDFD"/>
<path d="M110.982 78.333H111.141L111.062 78.8078L110.427 79.7573L110.031 80.0737H109.793L109.872 79.6781L110.348 78.966L110.745 78.4913L110.982 78.333Z" fill="#F67F26"/>
<path d="M167.841 26.5859H168V28.0893L167.762 27.9311V26.6651L167.841 26.5859Z" fill="#060707"/>
</g>
<defs>
<clipPath id="clip0_9432_85">
<rect width="218" height="93" fill="white"/>
</clipPath>
</defs>
</svg>
